<?xml version="1.0" encoding="UTF-8"?>
<svg height="16px" viewBox="0 0 16 16" width="16px" xmlns="http://www.w3.org/2000/svg" xmlns:xlink="http://www.w3.org/1999/xlink">
    <filter id="a" height="100%" width="100%" x="0%" y="0%">
        <feColorMatrix color-interpolation-filters="sRGB" values="0 0 0 0 1 0 0 0 0 1 0 0 0 0 1 0 0 0 1 0"/>
    </filter>
    <mask id="b">
        <g filter="url(#a)">
            <rect fill-opacity="0.2" height="19.2" width="19.2" x="-1.6" y="-1.6"/>
        </g>
    </mask>
    <clipPath id="c">
        <rect height="152" width="192"/>
    </clipPath>
    <mask id="d">
        <g filter="url(#a)">
            <rect fill-opacity="0.2" height="19.2" width="19.2" x="-1.6" y="-1.6"/>
        </g>
    </mask>
    <clipPath id="e">
        <rect height="152" width="192"/>
    </clipPath>
    <mask id="f">
        <g filter="url(#a)">
            <rect fill-opacity="0.2" height="19.2" width="19.2" x="-1.6" y="-1.6"/>
        </g>
    </mask>
    <clipPath id="g">
        <rect height="152" width="192"/>
    </clipPath>
    <mask id="h">
        <g filter="url(#a)">
            <rect fill-opacity="0.2" height="19.2" width="19.2" x="-1.6" y="-1.6"/>
        </g>
    </mask>
    <clipPath id="i">
        <rect height="152" width="192"/>
    </clipPath>
    <mask id="j">
        <g filter="url(#a)">
            <rect fill-opacity="0.2" height="19.2" width="19.2" x="-1.6" y="-1.6"/>
        </g>
    </mask>
    <clipPath id="k">
        <rect height="152" width="192"/>
    </clipPath>
    <mask id="l">
        <g filter="url(#a)">
            <rect fill-opacity="0.2" height="19.2" width="19.2" x="-1.6" y="-1.6"/>
        </g>
    </mask>
    <clipPath id="m">
        <rect height="152" width="192"/>
    </clipPath>
    <mask id="n">
        <g filter="url(#a)">
            <rect fill-opacity="0.2" height="19.2" width="19.2" x="-1.6" y="-1.6"/>
        </g>
    </mask>
    <clipPath id="o">
        <rect height="152" width="192"/>
    </clipPath>
    <mask id="p">
        <g filter="url(#a)">
            <rect fill-opacity="0.05" height="19.2" width="19.2" x="-1.6" y="-1.6"/>
        </g>
    </mask>
    <clipPath id="q">
        <rect height="152" width="192"/>
    </clipPath>
    <g mask="url(#b)">
        <g clip-path="url(#c)" transform="matrix(1 0 0 1 -168 -16)">
            <path d="m 114.839844 58.441406 l -2.742188 5.878906 l -1.46875 -0.683593 l 2.742188 -5.878907 z m 0 0"/>
        </g>
    </g>
    <g mask="url(#d)">
        <g clip-path="url(#e)" transform="matrix(1 0 0 1 -168 -16)">
            <path d="m 117.777344 59.8125 l -2.738282 5.878906 l -1.472656 -0.6875 l 2.742188 -5.875 z m 0 0"/>
        </g>
    </g>
    <g mask="url(#f)">
        <g clip-path="url(#g)" transform="matrix(1 0 0 1 -168 -16)">
            <path d="m 120.71875 61.183594 l -2.742188 5.878906 l -1.46875 -0.6875 l 2.742188 -5.875 z m 0 0"/>
        </g>
    </g>
    <g mask="url(#h)">
        <g clip-path="url(#i)" transform="matrix(1 0 0 1 -168 -16)">
            <path d="m 93.585938 57.421875 h 6.484374 v 1.621094 h -6.484374 z m 0 0"/>
        </g>
    </g>
    <g mask="url(#j)">
        <g clip-path="url(#k)" transform="matrix(1 0 0 1 -168 -16)">
            <path d="m 95.207031 49.3125 v 6.488281 h -1.621093 v -6.488281 z m 0 0"/>
        </g>
    </g>
    <g mask="url(#l)">
        <g clip-path="url(#m)" transform="matrix(1 0 0 1 -168 -16)">
            <path d="m 98.449219 49.3125 v 6.488281 h -1.621094 v -6.488281 z m 0 0"/>
        </g>
    </g>
    <g mask="url(#n)">
        <g clip-path="url(#o)" transform="matrix(1 0 0 1 -168 -16)">
            <path d="m 101.695312 49.3125 v 6.488281 h -1.625 v -6.488281 z m 0 0"/>
        </g>
    </g>
    <g mask="url(#p)">
        <g clip-path="url(#q)" transform="matrix(1 0 0 1 -168 -16)">
            <path d="m 98.023438 70.546875 c -3.132813 -0.121094 -6.261719 0.230469 -9.285157 1.042969 c -13.769531 3.707031 -23.28125 16.265625 -23.121093 30.523437 c 0.609374 -13.609375 9.964843 -25.257812 23.121093 -28.789062 c 16.671875 -4.46875 33.808594 5.425781 38.277344 22.097656 c 0.664063 2.53125 1.007813 5.136719 1.023437 7.753906 c 0.148438 -3.199219 -0.199218 -6.398437 -1.023437 -9.488281 c -3.546875 -13.238281 -15.300781 -22.617188 -28.992187 -23.140625 z m 0 0"/>
        </g>
    </g>
    <g fill="none" stroke="#000000" stroke-width="2">
        <path d="m 9 11 c 0 1.105469 -0.894531 2 -2 2 s -2 -0.894531 -2 -2 s 0.894531 -2 2 -2 s 2 0.894531 2 2 z m 0 0" stroke-linecap="square"/>
        <path d="m 4 14 l 1.585938 -1.585938" stroke-linecap="round" stroke-linejoin="round"/>
        <path d="m 9 9 l 5 -5" stroke-linecap="round" stroke-linejoin="round"/>
        <path d="m 6.960938 1 c 2.578124 -0.011719 5.0625 0.976562 6.929687 2.753906" stroke-linecap="round" stroke-opacity="0.305807"/>
    </g>
</svg>
